<?xml version="1.0" standalone="no"?>
<!DOCTYPE svg PUBLIC "-//W3C//DTD SVG 20010904//EN"
 "http://www.w3.org/TR/2001/REC-SVG-20010904/DTD/svg10.dtd">
<svg version="1.0" xmlns="http://www.w3.org/2000/svg"
 width="512.000000pt" height="512.000000pt" viewBox="0 0 512.000000 512.000000"
 preserveAspectRatio="xMidYMid meet">

<g transform="translate(0.000000,512.000000) scale(0.100000,-0.100000)"
fill="#000000" stroke="none">
<path d="M2448 5057 c-68 -26 -128 -68 -168 -118 -43 -54 -80 -156 -80 -218 0
-61 28 -150 66 -207 38 -57 131 -127 184 -139 l30 -7 0 -179 0 -179 -902 -2
-903 -3 -57 -27 c-73 -34 -137 -98 -173 -174 -25 -51 -29 -74 -33 -170 l-4
-111 -102 -5 c-149 -7 -223 -47 -279 -152 l-22 -41 -3 -890 c-2 -619 0 -905 8
-940 15 -69 65 -134 131 -170 48 -26 65 -30 160 -33 l107 -4 4 -112 c3 -93 8
-120 30 -166 36 -77 86 -131 160 -171 l63 -34 263 -3 262 -3 0 -348 c0 -337 1
-349 21 -375 43 -54 38 -56 740 349 l649 375 927 2 928 3 63 34 c74 40 124 94
160 171 22 46 27 73 30 166 l4 112 107 4 c96 3 111 6 161 34 61 34 113 100
130 164 7 26 10 341 8 937 l-3 898 -22 41 c-56 105 -130 145 -280 152 l-103 5
0 87 c0 154 -54 271 -156 339 -96 63 -60 61 -1031 61 l-883 0 0 178 0 179 38
11 c45 14 119 65 155 107 41 50 68 110 80 180 10 56 9 76 -6 133 -30 114 -88
186 -191 239 -42 22 -68 27 -141 30 -59 2 -103 -1 -127 -10z m229 -183 c58
-47 78 -88 78 -161 0 -52 -5 -68 -30 -105 -79 -113 -245 -117 -324 -8 -54 75
-50 176 9 244 46 52 85 67 162 64 57 -3 72 -8 105 -34z m1751 -1039 c49 -21
81 -52 103 -100 18 -38 19 -97 19 -1330 l0 -1291 -22 -44 c-13 -24 -40 -58
-61 -74 l-39 -31 -941 -5 -942 -5 -591 -343 c-326 -188 -595 -342 -598 -342
-3 0 -6 141 -6 314 l0 315 -24 28 -24 28 -304 5 c-320 5 -321 5 -370 57 -62
64 -58 -20 -58 1388 0 1138 2 1290 15 1323 21 49 52 81 100 103 38 18 112 19
1873 19 1632 0 1837 -2 1870 -15z m-4018 -1431 l0 -956 -95 4 c-88 3 -97 5
-122 31 l-28 27 -3 880 c-3 974 -6 926 61 955 18 8 66 14 110 15 l77 0 0 -956z
m4485 942 c69 -29 66 22 63 -956 l-3 -880 -28 -27 c-25 -26 -34 -28 -122 -31
l-95 -4 0 956 0 956 75 0 c43 0 90 -6 110 -14z"/>
<path d="M1536 3149 c-121 -20 -250 -119 -306 -233 -107 -220 -16 -473 209
-580 62 -29 73 -31 177 -31 107 0 112 1 185 37 269 133 325 486 110 691 -69
66 -121 94 -210 113 -73 15 -93 16 -165 3z m201 -185 c93 -45 144 -130 144
-240 0 -77 -23 -133 -77 -187 -57 -56 -97 -72 -189 -72 -91 0 -136 17 -193 73
-116 117 -93 328 45 413 86 53 177 58 270 13z"/>
<path d="M3414 3145 c-82 -18 -137 -47 -202 -108 -94 -90 -134 -182 -133 -312
0 -172 91 -313 250 -389 62 -29 73 -31 176 -31 103 0 114 2 176 31 278 132
340 487 121 696 -70 67 -122 95 -211 114 -79 16 -98 16 -177 -1z m213 -181
c92 -45 146 -132 146 -239 0 -143 -102 -252 -246 -263 -84 -6 -140 13 -202 70
-69 63 -89 112 -84 211 4 61 10 83 34 123 54 86 159 139 255 129 25 -3 68 -17
97 -31z"/>
<path d="M1983 1808 c-30 -15 -49 -63 -37 -96 21 -59 274 -167 453 -193 118
-17 323 -7 431 21 96 25 242 86 301 124 21 14 41 37 45 51 9 37 -13 81 -47 96
-27 11 -39 8 -138 -40 -170 -80 -235 -95 -431 -95 -196 0 -262 15 -428 94
-112 53 -115 54 -149 38z"/>
</g>
</svg>
